<svg width="1120" height="690" viewBox="0 0 1120 690" fill="none" xmlns="http://www.w3.org/2000/svg">
  <rect width="1120" height="690" rx="28" fill="#F5F7FB"/>
  <rect x="36" y="34" width="1048" height="622" rx="24" fill="#FFFFFF" stroke="#D9DEE8"/>

  <rect x="36" y="34" width="76" height="622" rx="24" fill="#26303D"/>
  <circle cx="74" cy="82" r="14" fill="#69C084"/>
  <circle cx="74" cy="130" r="14" fill="#7DA9F7"/>
  <circle cx="74" cy="178" r="14" fill="#F2C85B"/>
  <rect x="59" y="228" width="30" height="30" rx="8" fill="#FFFFFF" opacity="0.14"/>
  <rect x="60" y="584" width="28" height="28" rx="14" fill="#FFFFFF" opacity="0.18"/>

  <rect x="112" y="34" width="296" height="622" fill="#F8FAFD"/>
  <text x="144" y="82" fill="#15202B" font-family="-apple-system,BlinkMacSystemFont,Segoe UI,Arial,sans-serif" font-size="28" font-weight="700">Codex 账号</text>
  <text x="144" y="111" fill="#657286" font-family="-apple-system,BlinkMacSystemFont,Segoe UI,Arial,sans-serif" font-size="16">当前：主账号 · gpt-5.5</text>

  <rect x="144" y="138" width="108" height="38" rx="8" fill="#2563EB"/>
  <text x="172" y="163" fill="#FFFFFF" font-family="-apple-system,BlinkMacSystemFont,Segoe UI,Arial,sans-serif" font-size="15" font-weight="600">自动切换</text>
  <rect x="264" y="138" width="104" height="38" rx="8" fill="#E7ECF4"/>
  <text x="288" y="163" fill="#334155" font-family="-apple-system,BlinkMacSystemFont,Segoe UI,Arial,sans-serif" font-size="15" font-weight="600">刷新余额</text>
  <rect x="144" y="186" width="108" height="38" rx="8" fill="#E7ECF4"/>
  <text x="171" y="211" fill="#334155" font-family="-apple-system,BlinkMacSystemFont,Segoe UI,Arial,sans-serif" font-size="15" font-weight="600">保存当前</text>
  <rect x="264" y="186" width="104" height="38" rx="8" fill="#E7ECF4"/>
  <text x="288" y="211" fill="#334155" font-family="-apple-system,BlinkMacSystemFont,Segoe UI,Arial,sans-serif" font-size="15" font-weight="600">导入 auth</text>

  <text x="144" y="265" fill="#657286" font-family="-apple-system,BlinkMacSystemFont,Segoe UI,Arial,sans-serif" font-size="15">默认运行配置</text>
  <rect x="144" y="286" width="224" height="118" rx="12" fill="#FFFFFF" stroke="#DCE3EE"/>
  <text x="162" y="318" fill="#15202B" font-family="-apple-system,BlinkMacSystemFont,Segoe UI,Arial,sans-serif" font-size="17" font-weight="700">工作区可写 · 按需</text>
  <text x="162" y="348" fill="#657286" font-family="-apple-system,BlinkMacSystemFont,Segoe UI,Arial,sans-serif" font-size="15">gpt-5.5 / xhigh / fast</text>
  <rect x="162" y="366" width="86" height="24" rx="12" fill="#E8F2FF"/>
  <text x="179" y="383" fill="#2563EB" font-family="-apple-system,BlinkMacSystemFont,Segoe UI,Arial,sans-serif" font-size="12" font-weight="700">自动应用</text>
  <rect x="258" y="366" width="86" height="24" rx="12" fill="#F2F5FA"/>
  <text x="270" y="383" fill="#64748B" font-family="-apple-system,BlinkMacSystemFont,Segoe UI,Arial,sans-serif" font-size="12" font-weight="700">运行刷新</text>

  <text x="144" y="443" fill="#657286" font-family="-apple-system,BlinkMacSystemFont,Segoe UI,Arial,sans-serif" font-size="15">账号</text>

  <rect x="144" y="464" width="224" height="128" rx="12" fill="#FFFFFF" stroke="#DCE3EE"/>
  <text x="162" y="495" fill="#15202B" font-family="-apple-system,BlinkMacSystemFont,Segoe UI,Arial,sans-serif" font-size="17" font-weight="700">主账号</text>
  <text x="162" y="520" fill="#657286" font-family="-apple-system,BlinkMacSystemFont,Segoe UI,Arial,sans-serif" font-size="13">user@example.com · Pro</text>
  <rect x="306" y="481" width="44" height="24" rx="12" fill="#E8F9EF" stroke="#69C084"/>
  <text x="317" y="498" fill="#24864F" font-family="-apple-system,BlinkMacSystemFont,Segoe UI,Arial,sans-serif" font-size="12" font-weight="700">当前</text>
  <text x="162" y="550" fill="#657286" font-family="-apple-system,BlinkMacSystemFont,Segoe UI,Arial,sans-serif" font-size="13">5小时</text>
  <rect x="207" y="541" width="104" height="8" rx="4" fill="#E8EDF5"/>
  <rect x="207" y="541" width="83" height="8" rx="4" fill="#69C084"/>
  <text x="320" y="550" fill="#15202B" font-family="-apple-system,BlinkMacSystemFont,Segoe UI,Arial,sans-serif" font-size="13">80%</text>
  <text x="162" y="576" fill="#657286" font-family="-apple-system,BlinkMacSystemFont,Segoe UI,Arial,sans-serif" font-size="13">7天</text>
  <rect x="207" y="567" width="104" height="8" rx="4" fill="#E8EDF5"/>
  <rect x="207" y="567" width="72" height="8" rx="4" fill="#69C084"/>
  <text x="320" y="576" fill="#15202B" font-family="-apple-system,BlinkMacSystemFont,Segoe UI,Arial,sans-serif" font-size="13">69%</text>

  <rect x="448" y="74" width="584" height="180" rx="18" fill="#F8FAFD" stroke="#DCE3EE"/>
  <text x="484" y="116" fill="#15202B" font-family="-apple-system,BlinkMacSystemFont,Segoe UI,Arial,sans-serif" font-size="31" font-weight="800">管理多个 Codex 账号</text>
  <text x="484" y="153" fill="#15202B" font-family="-apple-system,BlinkMacSystemFont,Segoe UI,Arial,sans-serif" font-size="31" font-weight="800">不再手动改 auth.json</text>
  <text x="484" y="187" fill="#526071" font-family="-apple-system,BlinkMacSystemFont,Segoe UI,Arial,sans-serif" font-size="17">保存账号快照、查看 5 小时/7 天余额、自动选择余量最大的账号。</text>
  <rect x="484" y="207" width="122" height="34" rx="17" fill="#E8F2FF"/>
  <text x="506" y="229" fill="#2563EB" font-family="-apple-system,BlinkMacSystemFont,Segoe UI,Arial,sans-serif" font-size="14" font-weight="700">Codex 插件</text>
  <rect x="618" y="207" width="120" height="34" rx="17" fill="#EFF8F2"/>
  <text x="645" y="229" fill="#24864F" font-family="-apple-system,BlinkMacSystemFont,Segoe UI,Arial,sans-serif" font-size="14" font-weight="700">VS Code</text>
  <rect x="750" y="207" width="84" height="34" rx="17" fill="#FFF6DA"/>
  <text x="777" y="229" fill="#A76B00" font-family="-apple-system,BlinkMacSystemFont,Segoe UI,Arial,sans-serif" font-size="14" font-weight="700">CLI</text>

  <rect x="448" y="282" width="176" height="140" rx="16" fill="#FFFFFF" stroke="#DCE3EE"/>
  <text x="476" y="324" fill="#15202B" font-family="-apple-system,BlinkMacSystemFont,Segoe UI,Arial,sans-serif" font-size="20" font-weight="800">保存账号</text>
  <text x="476" y="355" fill="#657286" font-family="-apple-system,BlinkMacSystemFont,Segoe UI,Arial,sans-serif" font-size="15">当前登录或导入</text>
  <text x="476" y="382" fill="#657286" font-family="-apple-system,BlinkMacSystemFont,Segoe UI,Arial,sans-serif" font-size="15">已有 auth.json</text>
  <rect x="476" y="394" width="92" height="8" rx="4" fill="#2563EB"/>

  <rect x="652" y="282" width="176" height="140" rx="16" fill="#FFFFFF" stroke="#DCE3EE"/>
  <text x="680" y="324" fill="#15202B" font-family="-apple-system,BlinkMacSystemFont,Segoe UI,Arial,sans-serif" font-size="20" font-weight="800">刷新余额</text>
  <text x="680" y="355" fill="#657286" font-family="-apple-system,BlinkMacSystemFont,Segoe UI,Arial,sans-serif" font-size="15">识别 5 小时</text>
  <text x="680" y="382" fill="#657286" font-family="-apple-system,BlinkMacSystemFont,Segoe UI,Arial,sans-serif" font-size="15">和 7 天窗口</text>
  <rect x="680" y="394" width="112" height="8" rx="4" fill="#69C084"/>

  <rect x="856" y="282" width="176" height="140" rx="16" fill="#FFFFFF" stroke="#DCE3EE"/>
  <text x="884" y="324" fill="#15202B" font-family="-apple-system,BlinkMacSystemFont,Segoe UI,Arial,sans-serif" font-size="20" font-weight="800">安全切换</text>
  <text x="884" y="355" fill="#657286" font-family="-apple-system,BlinkMacSystemFont,Segoe UI,Arial,sans-serif" font-size="15">备份、验证</text>
  <text x="884" y="382" fill="#657286" font-family="-apple-system,BlinkMacSystemFont,Segoe UI,Arial,sans-serif" font-size="15">同步刷新 token</text>
  <rect x="884" y="394" width="98" height="8" rx="4" fill="#F2C85B"/>

  <rect x="448" y="456" width="584" height="136" rx="18" fill="#15202B"/>
  <text x="484" y="499" fill="#AAB6C6" font-family="SFMono-Regular,Consolas,Menlo,monospace" font-size="16">$ codex-account-switcher switch --best</text>
  <text x="484" y="534" fill="#FFFFFF" font-family="SFMono-Regular,Consolas,Menlo,monospace" font-size="16">磁盘账号已切换，并已通过 account/read refresh 验证。</text>
  <text x="484" y="568" fill="#8AE1A8" font-family="SFMono-Regular,Consolas,Menlo,monospace" font-size="16">自动选择：主账号，5小时 80%，7天 69%</text>
</svg>
