<svg width="1120" height="690" viewBox="0 0 1120 690" fill="none" xmlns="http://www.w3.org/2000/svg">
  <defs>
    <filter id="softShadow" x="-20%" y="-20%" width="140%" height="140%" color-interpolation-filters="sRGB">
      <feDropShadow dx="0" dy="14" stdDeviation="18" flood-color="#102033" flood-opacity="0.10"/>
    </filter>
  </defs>

  <rect width="1120" height="690" rx="28" fill="#F5F7FB"/>
  <rect x="36" y="34" width="1048" height="622" rx="24" fill="#FFFFFF" stroke="#D7DEE8" filter="url(#softShadow)"/>

  <rect x="36" y="34" width="76" height="622" rx="24" fill="#252B33"/>
  <rect x="88" y="34" width="24" height="622" fill="#252B33"/>
  <circle cx="74" cy="82" r="14" fill="#57C785"/>
  <circle cx="74" cy="130" r="14" fill="#77A7F7"/>
  <circle cx="74" cy="178" r="14" fill="#F3C85B"/>
  <rect x="58" y="231" width="32" height="32" rx="8" fill="#FFFFFF" opacity="0.16"/>
  <path d="M66 247h16M74 239v16" stroke="#FFFFFF" stroke-width="2" stroke-linecap="round" opacity="0.9"/>
  <rect x="58" y="584" width="32" height="32" rx="16" fill="#FFFFFF" opacity="0.16"/>

  <rect x="112" y="34" width="320" height="622" fill="#F7F9FC"/>
  <rect x="431" y="34" width="1" height="622" fill="#DDE4EE"/>
  <rect x="112" y="34" width="972" height="52" fill="#FBFCFE"/>
  <rect x="112" y="85" width="972" height="1" fill="#E4EAF2"/>

  <g font-family="-apple-system,BlinkMacSystemFont,Segoe UI,Arial,sans-serif">
    <text x="142" y="70" fill="#1D2633" font-size="22" font-weight="750">Codex 账号切换器</text>
    <text x="942" y="67" fill="#64748B" font-size="13">VS Code / Codex 界面</text>

    <rect x="142" y="108" width="258" height="44" rx="10" fill="#FFFFFF" stroke="#DDE4EE"/>
    <text x="160" y="135" fill="#4A5565" font-size="14">当前账号</text>
    <text x="246" y="135" fill="#17202B" font-size="16" font-weight="700">muka2</text>
    <rect x="336" y="119" width="44" height="22" rx="11" fill="#E7F8EF" stroke="#79D99F"/>
    <text x="347" y="134" fill="#1E7F4A" font-size="12" font-weight="700">当前</text>

    <rect x="142" y="170" width="122" height="36" rx="8" fill="#2563EB"/>
    <text x="174" y="193" fill="#FFFFFF" font-size="14" font-weight="700">刷新余额</text>
    <rect x="278" y="170" width="122" height="36" rx="8" fill="#E9EEF6"/>
    <text x="310" y="193" fill="#2E3A4B" font-size="14" font-weight="700">保存当前</text>

    <text x="142" y="242" fill="#6B778A" font-size="14" font-weight="650">账号与余额</text>

    <rect x="142" y="258" width="258" height="116" rx="12" fill="#FFFFFF" stroke="#CAD7E8" stroke-width="1.2"/>
    <text x="160" y="287" fill="#182230" font-size="17" font-weight="750">muka2</text>
    <text x="160" y="309" fill="#6B778A" font-size="12">muka2@example.com · Pro</text>
    <text x="160" y="339" fill="#4B5565" font-size="12">5小时</text>
    <rect x="202" y="330" width="124" height="8" rx="4" fill="#E7EDF5"/>
    <rect x="202" y="330" width="102" height="8" rx="4" fill="#57C785"/>
    <text x="338" y="339" fill="#17202B" font-size="12" font-weight="700">82%</text>
    <text x="160" y="359" fill="#4B5565" font-size="12">7天</text>
    <rect x="202" y="350" width="124" height="8" rx="4" fill="#E7EDF5"/>
    <rect x="202" y="350" width="84" height="8" rx="4" fill="#57C785"/>
    <text x="338" y="359" fill="#17202B" font-size="12" font-weight="700">68%</text>

    <rect x="142" y="386" width="258" height="78" rx="12" fill="#FFFFFF" stroke="#DDE4EE"/>
    <text x="160" y="415" fill="#182230" font-size="15" font-weight="700">主账号</text>
    <text x="306" y="415" fill="#6B778A" font-size="12">45% / 91%</text>
    <rect x="160" y="433" width="202" height="8" rx="4" fill="#E7EDF5"/>
    <rect x="160" y="433" width="91" height="8" rx="4" fill="#F3C85B"/>

    <rect x="142" y="476" width="258" height="132" rx="12" fill="#FFFFFF" stroke="#DDE4EE"/>
    <text x="160" y="505" fill="#182230" font-size="15" font-weight="750">默认运行配置</text>
    <rect x="160" y="520" width="96" height="26" rx="7" fill="#EEF4FF"/>
    <text x="170" y="538" fill="#2563EB" font-size="12" font-weight="700">权限 工作区可写</text>
    <rect x="266" y="520" width="96" height="26" rx="7" fill="#F1F5F9"/>
    <text x="278" y="538" fill="#334155" font-size="12" font-weight="700">on-request</text>
    <rect x="160" y="556" width="102" height="26" rx="7" fill="#F1F5F9"/>
    <text x="174" y="574" fill="#334155" font-size="12" font-weight="700">gpt-5.5</text>
    <rect x="272" y="556" width="90" height="26" rx="7" fill="#E7F8EF"/>
    <text x="292" y="574" fill="#1E7F4A" font-size="12" font-weight="700">fast</text>
    <text x="160" y="594" fill="#6B778A" font-size="12">模型策略：smart / xhigh</text>

    <text x="462" y="132" fill="#182230" font-size="34" font-weight="820">Codex 账号切换器</text>
    <text x="462" y="164" fill="#526071" font-size="16">用中文命令或斜杠入口管理账号、余额和默认运行配置。</text>

    <rect x="462" y="189" width="178" height="38" rx="10" fill="#F1F6FF" stroke="#D7E6FF"/>
    <text x="482" y="213" fill="#1E56C5" font-size="14" font-weight="750">/switch-account list</text>
    <rect x="654" y="189" width="232" height="38" rx="10" fill="#F1F6FF" stroke="#D7E6FF"/>
    <text x="674" y="213" fill="#1E56C5" font-size="14" font-weight="750">/switch-account switch muka2</text>
    <rect x="900" y="189" width="154" height="38" rx="10" fill="#F1F6FF" stroke="#D7E6FF"/>
    <text x="920" y="213" fill="#1E56C5" font-size="14" font-weight="750">/switch-account best</text>

    <rect x="462" y="254" width="592" height="204" rx="16" fill="#FAFBFD" stroke="#DDE4EE"/>
    <rect x="462" y="254" width="592" height="42" rx="16" fill="#FFFFFF"/>
    <rect x="462" y="295" width="592" height="1" fill="#E5EAF2"/>
    <circle cx="492" cy="275" r="6" fill="#57C785"/>
    <text x="508" y="280" fill="#334155" font-size="13" font-weight="700">Codex 对话</text>
    <text x="920" y="280" fill="#64748B" font-size="12">插件已加载</text>

    <rect x="490" y="318" width="236" height="34" rx="9" fill="#EEF4FF"/>
    <text x="508" y="340" fill="#174EA6" font-size="14" font-family="SFMono-Regular,Consolas,Menlo,monospace">/switch-account list</text>
    <rect x="490" y="362" width="536" height="54" rx="10" fill="#FFFFFF" stroke="#E1E7F0"/>
    <text x="508" y="385" fill="#182230" font-size="13" font-weight="750">账号列表</text>
    <text x="590" y="385" fill="#64748B" font-size="13">muka2 当前 · 5小时 82% · 7天 68%</text>
    <rect x="508" y="398" width="360" height="7" rx="3.5" fill="#E7EDF5"/>
    <rect x="508" y="398" width="245" height="7" rx="3.5" fill="#57C785"/>
    <text x="884" y="406" fill="#64748B" font-size="12">瓶颈余额 68%</text>

    <rect x="490" y="438" width="256" height="34" rx="9" fill="#EEF4FF"/>
    <text x="508" y="460" fill="#174EA6" font-size="14" font-family="SFMono-Regular,Consolas,Menlo,monospace">/switch-account switch muka2</text>
    <rect x="762" y="438" width="264" height="34" rx="9" fill="#F0FDF4" stroke="#CBEFDB"/>
    <text x="780" y="460" fill="#1E7F4A" font-size="13" font-weight="750">已切换到 muka2，并刷新运行态</text>

    <rect x="462" y="490" width="592" height="112" rx="16" fill="#FFFFFF" stroke="#DDE4EE"/>
    <text x="490" y="523" fill="#182230" font-size="17" font-weight="780">自动选择与默认配置</text>
    <rect x="838" y="502" width="188" height="34" rx="9" fill="#EEF4FF"/>
    <text x="856" y="524" fill="#174EA6" font-size="14" font-family="SFMono-Regular,Consolas,Menlo,monospace">/switch-account best</text>

    <rect x="490" y="545" width="116" height="34" rx="9" fill="#F8FAFC" stroke="#E2E8F0"/>
    <text x="505" y="567" fill="#334155" font-size="13" font-weight="750">权限 工作区可写</text>
    <rect x="618" y="545" width="118" height="34" rx="9" fill="#F8FAFC" stroke="#E2E8F0"/>
    <text x="635" y="567" fill="#334155" font-size="13" font-weight="750">审批 按需</text>
    <rect x="748" y="545" width="132" height="34" rx="9" fill="#F8FAFC" stroke="#E2E8F0"/>
    <text x="765" y="567" fill="#334155" font-size="13" font-weight="750">模型 gpt-5.5</text>
    <rect x="892" y="545" width="116" height="34" rx="9" fill="#F0FDF4" stroke="#CBEFDB"/>
    <text x="922" y="567" fill="#1E7F4A" font-size="13" font-weight="750">速度 fast</text>
  </g>
</svg>
